/* XPM */
static char * C:\Users\Martin\Documents\GPS maps\Geocaching Map\sources\underground symbol\16 colour 32x27_xpm[] = {
"32 27 60 1",
" 	c None",
".	c #EEFFFF",
"+	c #FFFFFF",
"@	c #FFEEEE",
"#	c #EEEEEE",
"$	c #FFDDDD",
"%	c #EEBBAA",
"&	c #EE8888",
"*	c #EE7777",
"=	c #EEAAAA",
"-	c #DDEEEE",
";	c #DD4444",
">	c #DD2222",
",	c #DD2211",
"'	c #FFCCCC",
")	c #EEBBBB",
"!	c #DD3333",
"~	c #EE8877",
"{	c #EE6666",
"]	c #DD5555",
"^	c #CCCCCC",
"/	c #EE9999",
"(	c #DD4433",
"_	c #EECCCC",
":	c #DD3322",
"<	c #AABBBB",
"[	c #EE3322",
"}	c #EE2211",
"|	c #EE7766",
"1	c #FF7777",
"2	c #FFBBBB",
"3	c #DDDDEE",
"4	c #3344BB",
"5	c #0011AA",
"6	c #2233BB",
"7	c #BBCCEE",
"8	c #0022AA",
"9	c #CCCCEE",
"0	c #DDDDFF",
"a	c #CCDDFF",
"b	c #CCAABB",
"c	c #AA3344",
"d	c #AA2233",
"e	c #BB6677",
"f	c #CC99BB",
"g	c #EEEEFF",
"h	c #555555",
"i	c #AAAAAA",
"j	c #FFDDCC",
"k	c #BBBBBB",
"l	c #444444",
"m	c #DD1111",
"n	c #FFEEDD",
"o	c #EEAA99",
"p	c #EE6655",
"q	c #777777",
"r	c #888888",
"s	c #DD5544",
"t	c #DDDDDD",
"u	c #999999",
"                                ",
"            .+@@@@#             ",
"          +$%&***&=$+-          ",
"        +$&;>,,,,,>;*'.         ",
"       +);>>>>>>>>>>>!=+        ",
"      +)>>>>>>>!>>>>>>>=+       ",
"     +$>>>>!&$+++$~!>>>,)+      ",
"     +;>>>{@+++++++$]>>>!@^     ",
"    +/,>>{@+++++++++@],>,&+     ",
"    +;>>('+++++++++++_!>>:@<    ",
" +++'[}}|+++++++++++++1}}}2+++  ",
" 34555555555555555555555555567  ",
" 34555555555555555555555555567  ",
" 34555555555555555555555555567  ",
" 34555888888888888888885885569  ",
" +0abcddea999999999999edddfa0g  ",
"  hi+!>>;$+++++++++++j(>>>@klh  ",
"    +&>>>*++++++++++@*,>,|.     ",
"    #@!>>>&@+++++++@&m>>>n^     ",
"     +)>>>,{%$@+@$=]m>>>=.      ",
"      +o>>>,>;{{p;>,>>>&+q      ",
"       +=:,>>>>>>>>>>>/+r       ",
"        +${>>>>>>>>>s'+q        ",
"         t+$&s!!!;~'+th         ",
"           t#.....-^q           ",
"               ur               ",
"                                "};
