/* XPM */
static char * C:\Users\Martin\Documents\GPS maps\Geocaching Map\sources\underground symbol\24x21_xpm[] = {
"24 21 163 2",
"  	c None",
". 	c #F9FCFC",
"+ 	c #FFFFFF",
"@ 	c #FAFFFF",
"# 	c #FDF2F2",
"$ 	c #F1A8A6",
"% 	c #E34D49",
"& 	c #DA1712",
"* 	c #D9130D",
"= 	c #D9130E",
"- 	c #DF3430",
"; 	c #EB8481",
"> 	c #FBDDDC",
", 	c #EDF5F5",
"' 	c #FBFCFC",
") 	c #F7C9C7",
"! 	c #DE2B26",
"~ 	c #DC221D",
"{ 	c #DC231E",
"] 	c #DD2621",
"^ 	c #EB7F7C",
"/ 	c #FEFEFE",
"( 	c #F9FFFF",
"_ 	c #F7CAC8",
": 	c #DC241F",
"< 	c #DB1E19",
"[ 	c #DD2B27",
"} 	c #E55B58",
"| 	c #E86C69",
"1 	c #E6615D",
"2 	c #DF3631",
"3 	c #DB1C17",
"4 	c #DB1D18",
"5 	c #F4F8F8",
"6 	c #FCE8E7",
"7 	c #DB201B",
"8 	c #DC211C",
"9 	c #E8726F",
"0 	c #FFFCFC",
"a 	c #FFFDFD",
"b 	c #FFFEFE",
"c 	c #EF9B99",
"d 	c #DC211B",
"e 	c #F19C99",
"f 	c #D3D3D3",
"g 	c #FCFDFD",
"h 	c #E97673",
"i 	c #DB1B16",
"j 	c #EB817F",
"k 	c #F2ADAB",
"l 	c #DB1A15",
"m 	c #DF3531",
"n 	c #DE2B27",
"o 	c #E24643",
"p 	c #EA7A77",
"q 	c #DB1C16",
"r 	c #F3B6B4",
"s 	c #B4B9BA",
"t 	c #DADEF0",
"u 	c #8C98D8",
"v 	c #948FC9",
"w 	c #81184F",
"x 	c #821F57",
"y 	c #8F6DA6",
"z 	c #97A3DD",
"A 	c #97A1DC",
"B 	c #9388C2",
"C 	c #822058",
"D 	c #821D55",
"E 	c #894880",
"F 	c #92A1DD",
"G 	c #A2AADD",
"H 	c #B5B4B1",
"I 	c #AFB7E3",
"J 	c #000CA4",
"K 	c #0017A9",
"L 	c #0019AA",
"M 	c #0018A9",
"N 	c #0017A8",
"O 	c #0018AA",
"P 	c #0015A7",
"Q 	c #2D42B9",
"R 	c #A9A8A1",
"S 	c #B0B7E4",
"T 	c #000FA5",
"U 	c #0019A9",
"V 	c #2F44B9",
"W 	c #A9A8A0",
"X 	c #B9BFE7",
"Y 	c #1128AF",
"Z 	c #192DAE",
"` 	c #16199A",
" .	c #161A9B",
"..	c #1827A9",
"+.	c #1930B2",
"@.	c #192CAD",
"#.	c #1721A2",
"$.	c #1930B3",
"%.	c #4558C1",
"&.	c #A8A7A1",
"*.	c #C3C3C3",
"=.	c #C3C4C5",
"-.	c #FDF7F7",
";.	c #DA1D19",
">.	c #DB231E",
",.	c #E87370",
"'.	c #FEFEFF",
").	c #F0A7A7",
"!.	c #DB221E",
"~.	c #ED918F",
"{.	c #D5DBDC",
"].	c #B6B7B7",
"^.	c #707070",
"/.	c #FDFEFE",
"(.	c #E55854",
"_.	c #DA1611",
":.	c #F7CDCC",
"<.	c #FCEEEE",
"[.	c #FFF7F6",
"}.	c #696A6A",
"|.	c #F7C1C0",
"1.	c #DD2C27",
"2.	c #F6C4C3",
"3.	c #FBE6E6",
"4.	c #E03A36",
"5.	c #DC221E",
"6.	c #E96F6B",
"7.	c #EAEAEA",
"8.	c #F4FFFF",
"9.	c #EB7A77",
"0.	c #E6625E",
"a.	c #F5BBB9",
"b.	c #F7CECC",
"c.	c #F6C3C2",
"d.	c #DA1813",
"e.	c #DF3833",
"f.	c #FAF2F1",
"g.	c #FCFAFA",
"h.	c #EB7D7A",
"i.	c #DA1A14",
"j.	c #DC201B",
"k.	c #E03C38",
"l.	c #FFF4F4",
"m.	c #898A8A",
"n.	c #F0FCFC",
"o.	c #F7BCBB",
"p.	c #E3514D",
"q.	c #E03D38",
"r.	c #EF8986",
"s.	c #F7F9F9",
"t.	c #858686",
"u.	c #9D9E9E",
"v.	c #FCF9F9",
"w.	c #FEF3F2",
"x.	c #F6BDBC",
"y.	c #F6BEBD",
"z.	c #FDE6E5",
"A.	c #FFFBFB",
"B.	c #C0C0C0",
"C.	c #B3B7B7",
"D.	c #B7BCBC",
"E.	c #B3B8B8",
"F.	c #8E9090",
"                                                ",
"                . + + + + + @                   ",
"              # $ % & * = - ; > ,               ",
"          ' ) ! ~ ~ { { { { ~ ] ^ /             ",
"        ( _ : { < [ } | 1 2 3 { 4 ^ 5           ",
"        6 7 { 8 9 0 a b b + c ~ { d e f         ",
"      g h { i j + + + + + + + k l { m +         ",
"      + n { o + + + + + + + + + p ~ q r s       ",
"  t u v w x y z A A A A A A A A B C D E F G H   ",
"  I J K L L M N N N N N N N N N K L L O P Q R   ",
"  S T U U U U U U U U U U U U U U U U U N V W   ",
"  X Y Z `  ...+.+.+.+.+.+.+.+.+.@. . .#.$.%.&.  ",
"  *.=.-.;.>.,.+ '.'.'.'.'.'.'.+ ).!.;.~.{.].^.  ",
"      /.(.{ _.:.+ + + + + + + <.{ { ~ [.}.      ",
"        |.3 { 1.2.+ + + + + 3.4.~ 5.6.7.        ",
"        8.9.7 { _.0.a.b.c.p d.~ 8 e.f.          ",
"          g.h.i.{ ~ 8 : 8 ~ { j.k.l.m.          ",
"            n.o.p.{ i 3 3 q q.r.s.t.            ",
"              u.v.w.2.x.y.z.A.B.                ",
"                    C.D.E.F.                    ",
"                                                "};
