/* XPM */
static char * C:\Users\Martin\Documents\GPS maps\Geocaching Map\sources\underground symbol\18x16 posterised v2_xpm[] = {
"18 15 26 1",
" 	c None",
".	c #FFFFFF",
"+	c #FFDBDB",
"@	c #DB9292",
"#	c #DB2424",
"$	c #DB4949",
"%	c #DB4924",
"&	c #FFB6B6",
"*	c #DBDBDB",
"=	c #DBDBFF",
"-	c #B6496D",
";	c #B62424",
">	c #B6DBDB",
",	c #B6B6DB",
"'	c #DB6D92",
")	c #B64949",
"!	c #92B6DB",
"~	c #0024B6",
"{	c #002492",
"]	c #92496D",
"^	c #922449",
"/	c #B66D92",
"(	c #DBB6B6",
"_	c #FF9292",
":	c #DB6D49",
"<	c #DB6D6D",
"      .+++.       ",
"    .@#####@.     ",
"   +$###$###$.    ",
"  .$#%&.**&##$.   ",
"  &##+     +##&   ",
"=*-;@>,>>>>,';)** ",
"!~~~~~~~~~~~~~~~! ",
",~{{~~~~~~~~~{{~, ",
"=,]^/,,,,,,,/^],= ",
"  &##*     (##_   ",
"  .$#$&( +&##$.   ",
"   +$##$:$##$+    ",
"    .<$###$<.     ",
"      +&&&+       ",
"                  "};
