/* XPM */
static char * C:\Users\Martin\Documents\GPS maps\Geocaching Map\sources\underground symbol\24x21_xpm[] = {
"24 21 61 1",
" 	c None",
".	c #FFFFFF",
"+	c #FFEEEE",
"@	c #EEAAAA",
"#	c #DD5544",
"$	c #DD1111",
"%	c #DD3333",
"&	c #EE8888",
"*	c #FFDDDD",
"=	c #EEEEEE",
"-	c #FFCCCC",
";	c #DD3322",
">	c #DD2222",
",	c #EE7777",
"'	c #DD2211",
")	c #DD5555",
"!	c #EE6666",
"~	c #EE6655",
"{	c #EEFFFF",
"]	c #EE9999",
"^	c #CCCCCC",
"/	c #EE8877",
"(	c #DD4444",
"_	c #EEBBBB",
":	c #BBBBBB",
"<	c #DDDDEE",
"[	c #8899DD",
"}	c #9988CC",
"|	c #881155",
"1	c #882255",
"2	c #8866AA",
"3	c #99AADD",
"4	c #9999DD",
"5	c #9988BB",
"6	c #884488",
"7	c #AAAADD",
"8	c #BBBBAA",
"9	c #AABBDD",
"0	c #0011AA",
"a	c #3344BB",
"b	c #AAAA99",
"c	c #BBBBEE",
"d	c #1122AA",
"e	c #1133AA",
"f	c #111199",
"g	c #112299",
"h	c #1133BB",
"i	c #4455BB",
"j	c #BBCCCC",
"k	c #EE9988",
"l	c #DDDDDD",
"m	c #777777",
"n	c #FFFFEE",
"o	c #666666",
"p	c #FFBBBB",
"q	c #EECCBB",
"r	c #EE7766",
"s	c #DD4433",
"t	c #888888",
"u	c #999999",
"v	c #FFEEDD",
"                        ",
"        .......         ",
"       +@#$$$%&*=       ",
"     .-;>>>>>>>>,.      ",
"    .->>';)!~%'>',{     ",
"    +>>>,.....]>>>]^    ",
"   .,>'/.......@'>%.    ",
"   .;>(.........,>'_:   ",
" <[}|123444444445116478 ",
" 90000000000000000000ab ",
" 90000000000000000000ab ",
" cdefgdeeeeeeeeeeggdhib ",
" :j.'>,.........@>'kl:m ",
"   .)>$-.......+>>>no   ",
"    p'>;q.....+%>>r=    ",
"    {,>>$!_-_,$>>%+     ",
"     .,'>>>>>>>>s+t     ",
"      {p)>''''s&.t      ",
"       u.+q__v.:        ",
"          :::t          ",
"                        "};
