/* XPM */
static char * C:\Users\Martin\Documents\GPS maps\Geocaching Map\sources\underground and DLR\24x21 posterised_xpm[] = {
"24 21 74 1",
" 	c None",
".	c #FFFFFF",
"+	c #E3E3E3",
"@	c #FFC6C6",
"#	c #E37171",
"$	c #E31C1C",
"%	c #E35555",
"&	c #FFC6AA",
"*	c #FFAAAA",
"=	c #E3391C",
"-	c #E33939",
";	c #E35539",
">	c #E38E71",
",	c #E3C6C6",
"'	c #E38E8E",
")	c #FF7171",
"!	c #FF8E8E",
"~	c #C6C6E3",
"{	c #718EC6",
"]	c #8E3971",
"^	c #8E71C6",
"/	c #7171C6",
"(	c #5571C6",
"_	c #8E8EE3",
":	c #711C55",
"<	c #8E71AA",
"[	c #8EAAE3",
"}	c #001CAA",
"|	c #5555C6",
"1	c #AAAAE3",
"2	c #3955C6",
"3	c #391C8E",
"4	c #39398E",
"5	c #3939AA",
"6	c #C6AAC6",
"7	c #C63939",
"8	c #C68EAA",
"9	c #AAAAC6",
"0	c #8E8EAA",
"a	c #C61C39",
"b	c #C6AAAA",
"c	c #398EAA",
"d	c #1CAAAA",
"e	c #39AAC6",
"f	c #AAE3E3",
"g	c #FFE3E3",
"h	c #8EC6C6",
"i	c #008E8E",
"j	c #00AAAA",
"k	c #8EC6E3",
"l	c #C6C6C6",
"m	c #55AAAA",
"n	c #C6E3E3",
"o	c #71C6C6",
"p	c #71AAAA",
"q	c #1C8E8E",
"r	c #AAC6E3",
"s	c #AAC6C6",
"t	c #008EAA",
"u	c #00398E",
"v	c #00558E",
"w	c #1C55AA",
"x	c #E3E3C6",
"y	c #71AAC6",
"z	c #3971AA",
"A	c #1C71AA",
"B	c #558EAA",
"C	c #718EAA",
"D	c #8EAAAA",
"E	c #8EAAC6",
"F	c #39C6C6",
"G	c #55C6C6",
"H	c #39AAAA",
"I	c #8EE3E3",
"      ...+              ",
"    @#$$$%&+            ",
"   *=$-;;=$#+           ",
"  @=->,+,'-$'           ",
"  )$!+    @=-@          ",
"~{]]^////(_]:<[         ",
"_}}}}}}}}}}}}}|         ",
"12332|||||2435{++       ",
" 6%789 00 +a7bcddef     ",
"  *$%,   g%$%hijjjjk+   ",
"  ,#$=#'#-$-lmn++ojjf   ",
"   +'-$$$=%,pl   gojj+  ",
"     ,'''bhqr9rrrsndtks ",
"       n{uuuuvvvvvuuuuwx",
"        yzvvzzzzzzzvvAB,",
"        9rtth9CDCErttrC ",
"          ojFs   nGjFl  ",
"          +FjdGoGHjdn   ",
"           nGjjjjjFn    ",
"            lnIoofs     ",
"                        "};
