/* XPM */
static char * C:\Users\Martin\Documents\GPS maps\Geocaching Map\sources\railway symbol\18x11 posterised_xpm[] = {
"18 11 8 1",
" 	c None",
".	c #FF2B2B",
"+	c #FF80AA",
"@	c #FFFFFF",
"#	c #FFD4D4",
"$	c #FF5555",
"%	c #FF8080",
"&	c #FFAAAA",
"..................",
".....+@@#.........",
".......$#@#$......",
"..#######@@@####%.",
"..&&&&&&&@@@&&&&$.",
".......%@@%.......",
"..&&&&@@@&&&&&&&$.",
"..####@@@#######$.",
".......#@@$.......",
".........&@@#.....",
".................."};
