/* XPM */
static char * C:\Users\Martin\Documents\GPS maps\Geocaching Map\sources\railway and DLR\24x23 posterised_xpm[] = {
"24 23 45 1",
" 	c None",
".	c #FFFFFF",
"+	c #AAE3E3",
"@	c #1CAAAA",
"#	c #00AAAA",
"$	c #55C6C6",
"%	c #E3E3E3",
"&	c #C6E3E3",
"*	c #FFE3E3",
"=	c #AAAAAA",
"-	c #E3C6C6",
";	c #39C6C6",
">	c #AAC6E3",
",	c #1C55AA",
"'	c #00558E",
")	c #8EAAC6",
"!	c #00398E",
"~	c #1C71AA",
"{	c #AAAAE3",
"]	c #C6C6C6",
"^	c #71C6C6",
"/	c #39AAAA",
"(	c #8E8E8E",
"_	c #E3FFFF",
":	c #8EE3E3",
"<	c #C68E8E",
"[	c #C61C1C",
"}	c #E31C1C",
"|	c #FFC6C6",
"1	c #E31C39",
"2	c #C63939",
"3	c #E3AAAA",
"4	c #AA8E8E",
"5	c #C67171",
"6	c #E38E8E",
"7	c #FF8E8E",
"8	c #FF7171",
"9	c #FF718E",
"0	c #FF3939",
"a	c #FF5555",
"b	c #E33939",
"c	c #FFAAAA",
"d	c #FF5571",
"e	c #FF1C1C",
"f	c #FF1C39",
"      .....             ",
"    .+@###@+.           ",
"   .$#######@.          ",
"  .$##$%%&$##@*         ",
"  &##+=   -&##+         ",
" .$#$%     %;#@%        ",
">,'',,,,,,,,,'',)       ",
">!'''''''''''''')       ",
">,'',~~~~~~~,''~{       ",
" ]^#/%(((((%@#@=        ",
"  _##^%   .^##_         ",
"   :###+&+###$<[}}}}}}} ",
"   %:#######$%[}}}}}}}} ",
"     .$###$.<%.|1}}}}}} ",
"      23%%45677..*7778} ",
"      }8.............*} ",
"      }}}}}}}9..8}}}}}} ",
"      }0aaa8..7aaaaaa0} ",
"      }7.............|} ",
"      }}bbbb8..c}bbbb1} ",
"      }}}}}}}1d..*0}}}} ",
"      eeeeeeeeeef00eeee ",
"                        "};
