/* XPM */
static char * C:\Users\Martin\Documents\GPS maps\Geocaching Map\sources\glass structure\32x32 2 colour_xpm[] = {
"32 32 4 1",
".	c #01A1EC",
"+	c #D8C2AA",
"3	c #01A1EC",
"4	c #D8C2AA",
"..++++....++++....++++....++++..",
"...++......++......++......++...",
"+......++......++......++......+",
"++....++++....++++....++++....++",
"++....++++....++++....++++....++",
"+......++......++......++......+",
"...++......++......++......++...",
"..++++....++++....++++....++++..",
"..++++....++++....++++....++++..",
"...++......++......++......++...",
"+......++......++......++......+",
"++....++++....++++....++++....++",
"++....++++....++++....++++....++",
"+......++......++......++......+",
"...++......++......++......++...",
"..++++....++++....++++....++++..",
"..++++....++++....++++....++++..",
"...++......++......++......++...",
"+......++......++......++......+",
"++....++++....++++....++++....++",
"++....++++....++++....++++....++",
"+......++......++......++......+",
"...++......++......++......++...",
"..++++....++++....++++....++++..",
"..++++....++++....++++....++++..",
"...++......++......++......++...",
"+......++......++......++......+",
"++....++++....++++....++++....++",
"++....++++....++++....++++....++",
"+......++......++......++......+",
"...++......++......++......++...",
"..++++....++++....++++....++++.."};
