/* XPM */
static char * C:\Users\Martin\Documents\GPS maps\Geocaching Map\sources\DLR symbol\18x15 posterised_xpm[] = {
"17 14 30 1",
" 	c None",
".	c #FFFFFF",
"+	c #DFFFFF",
"@	c #9FDFDF",
"#	c #40BFBF",
"$	c #009F9F",
"%	c #209FBF",
"&	c #80DFDF",
"*	c #60BFBF",
"=	c #80BFBF",
"-	c #BFDFDF",
";	c #DFDFDF",
">	c #209F9F",
",	c #DFDFFF",
"'	c #BF9F9F",
")	c #BFBFBF",
"!	c #80BFDF",
"~	c #00609F",
"{	c #00409F",
"]	c #20609F",
"^	c #609FBF",
"/	c #6080BF",
"(	c #809FBF",
"_	c #409FBF",
":	c #00809F",
"<	c #20809F",
"[	c #9FBFDF",
"}	c #20BFBF",
"|	c #9F9F9F",
"1	c #FFDFDF",
"      .+++.      ",
"    .@#$$$%&+    ",
"   .*$$$$$$$%+   ",
"   *$$=-;;&$$>.  ",
"  ,$$@'    +$$*  ",
" ;*$#;);;;;;!$$,;",
"-~{{~]]]]]]]]{{]^",
"-{{{{{~~~~~{{{{{/",
";(_:<(((((((_::([",
"  -$$;     ;}$#) ",
"  .#$%-   -#$%;  ",
"   +}$$#*#$$}@|  ",
"    ;#}>>>}#@'   ",
"     1-===@;     ",
"                 "};
