/* XPM */
static char * C:\Users\Martin\Documents\GPS maps\Geocaching Map\sources\railway and underground\24x24 posterised v2_xpm[] = {
"24 24 41 1",
" 	c None",
".	c #FFFFFF",
"+	c #FFC6C6",
"@	c #E35555",
"#	c #E31C1C",
"$	c #E33939",
"%	c #FFAAAA",
"&	c #E38E8E",
"*	c #FFE3E3",
"=	c #E37171",
"-	c #E3E3E3",
";	c #C6C6C6",
">	c #FF8E8E",
",	c #E3FFFF",
"'	c #C6C6E3",
")	c #3955C6",
"!	c #391C8E",
"~	c #3939AA",
"{	c #5571C6",
"]	c #AAAAE3",
"^	c #001CAA",
"/	c #AAAAAA",
"(	c #717171",
"_	c #E3391C",
":	c #AA3939",
"<	c #E37155",
"[	c #AA8E8E",
"}	c #C63939",
"|	c #C68E8E",
"1	c #E3C6C6",
"2	c #C6AAAA",
"3	c #C65555",
"4	c #FF3955",
"5	c #E3AAAA",
"6	c #FF8EAA",
"7	c #FFAAC6",
"8	c #FFC6E3",
"9	c #FF3939",
"0	c #FF5555",
"a	c #FF7171",
"b	c #FFE3FF",
"      .....             ",
"    .+@###$%.           ",
"   .&#######$.          ",
"   &##@*.*=###.         ",
"  *##&-   ;*##&;        ",
"  &#$-      >##,        ",
"')!!~))))))))!!~{;      ",
"]^^^^^^^^^^^^^^^);      ",
"]^^^^^^^^^^^^^^^);      ",
" ;&#$,/////;&##,(       ",
"  *##&-    *##&/        ",
"   %##@+.*=##_.         ",
"   -&#######$.:######## ",
"    ;*<###$%-[$######## ",
"     }|1--233*.+4###### ",
"     ##5555%%%*..+%%%6# ",
"     ##7%%%%%%8..*%%%%# ",
"     #######9%.+0###### ",
"     ##aaaa%..>0aaaaa0# ",
"     ##.......b*.....%# ",
"     #######%..a####### ",
"     #########>..%$#### ",
"     ################## ",
"                        "};
