/* XPM */
static char * C:\Users\Martin\Documents\GPS maps\Geocaching Map\sources\railway and underground\24x21 7 colour_xpm[] = {
"24 21 19 1",
" 	c None",
".	c #FFFFFF",
"+	c #FFD4D4",
"@	c #FFAAAA",
"#	c #D42B2B",
"$	c #D45555",
"%	c #D48055",
"&	c #D48080",
"*	c #AAAAAA",
"=	c #D4D4D4",
"-	c #AAAAD4",
";	c #002BAA",
">	c #2B2BAA",
",	c #808080",
"'	c #FF8080",
")	c #FF2B2B",
"!	c #FF5555",
"~	c #D4AAAA",
"{	c #FF0000",
"      .+++.             ",
"    .@#####@.           ",
"   .$#######$.          ",
"  .%##&...$##$.         ",
"  +##+    *@##+         ",
"  &#&.     =$#$         ",
"-;;;>>>>>>>>>;;;-       ",
"-;;;;;;;;;;;;;;;-       ",
"->>>>>>>>>>>>>>>-       ",
"**&#&.*****=$#$.,       ",
"  +##+    &'##@         ",
"  =$##&))))!''!)))))))) ",
"   =$##)))))!@.+!)))))) ",
"    =@#)'@@@@@@...@@@@) ",
"      ~)'@@@@@@...@@@@) ",
"       ))))))'.+!{))))) ",
"       )@+++...++++++@) ",
"       )!'''@..@'''''') ",
"       )))))))'..@))))) ",
"       )))))))))!!!)))) ",
"                        "};
